<?xml version="1.0" standalone="no"?>
<!DOCTYPE svg PUBLIC "-//W3C//DTD SVG 20010904//EN"
 "http://www.w3.org/TR/2001/REC-SVG-20010904/DTD/svg10.dtd">
<svg version="1.0" xmlns="http://www.w3.org/2000/svg"
 width="201.000000pt" height="201.000000pt" viewBox="0 0 201.000000 201.000000"
 preserveAspectRatio="xMidYMid meet">
<metadata>
Created by potrace 1.11, written by Peter Selinger 2001-2013
</metadata>
<g transform="translate(0.000000,201.000000) scale(0.100000,-0.100000)"
fill="#000000" stroke="none">
<path d="M0 1005 l0 -1005 600 0 600 0 0 1005 0 1005 -600 0 -600 0 0 -1005z
m778 388 c69 -32 140 -101 171 -165 33 -70 42 -157 39 -408 l-3 -225 -127 -3
-128 -3 0 246 c0 272 -5 302 -59 329 -63 33 -136 12 -165 -48 -13 -28 -16 -73
-16 -275 l0 -241 -130 0 -130 0 0 233 c0 321 19 397 118 496 109 109 282 134
430 64z"/>
<path d="M1608 1568 l-88 -41 0 -108 0 -109 -55 0 -55 0 0 -85 0 -85 55 0 55
0 0 -224 c0 -238 5 -272 48 -318 36 -39 83 -52 166 -45 121 9 127 15 142 136
6 53 6 54 -17 46 -13 -4 -46 -10 -73 -12 -75 -8 -76 -4 -76 224 l0 193 80 0
80 0 0 85 0 85 -80 0 -80 0 0 150 c0 83 -3 150 -7 150 -5 -1 -47 -19 -95 -42z"/>
</g>
</svg>
